[img]http://img10.imageshack.us/img10/4834/iamlegend320x200.png[/img]
 
http://www.imdb.com/title//

Source: I Am Legend 2007 720p Blu-Ray DTS x264-CtrlHD

Subs: Arabic, Brazilian, Bulgarian, Danish, Dutch, English, Farsi-Persian, Finnish, French, German, Hungarian, Norwegian, Polish, Portuguese, Spanish, Swedish and Turkish.

Sample and Screens included.

General
Complete name                    : I Am Legend-720p MP4 AAC BRRip 2007-CC.mp4
Format                           : MPEG-4
Format profile                   : Base Media
Codec ID                         : isom
File size                        : 1.79 GiB
Duration                         : 1h 40mn
Overall bit rate                 : 2 549 Kbps
Encoded date                     : UTC 2012-01-19 14:25:58
Tagged date                      : UTC 2012-01-19 14:25:58
Writing application              : Yamb 2.1.0.0 

Video
ID                               : 1
Format                           : AVC
Format/Info                      : Advanced Video Codec
Format profile                   : High@L3.1
Format settings, CABAC           : Yes
Format settings, ReFrames        : 5 frames
Codec ID                         : avc1
Codec ID/Info                    : Advanced Video Coding
Duration                         : 1h 40mn
Bit rate mode                    : Variable
Bit rate                         : 2 120 Kbps
Maximum bit rate                 : 32.1 Mbps
Width                            : 1 280 pixels
Height                           : 528 pixels
Display aspect ratio             : 2.40:1
Original display aspect ratio    : 2.40:1
Frame rate mode                  : Variable
Frame rate                       : 23.962 fps
Minimum frame rate               : 13.653 fps
Maximum frame rate               : 24.390 fps
Color space                      : YUV
Chroma subsampling               : 4:2:0
Bit depth                        : 8 bits
Scan type                        : Progressive
Bits/(Pixel*Frame)               : 0.131
Stream size                      : 1.47 GiB (82%)
Writing library                  : x264 core 112
Encoding settings                : cabac=1 / ref=5 / deblock=1:0:0 / analyse=0x3:0x113 / me=hex / subme=7 / psy=1 / psy_rd=1.00:0.00 / mixed_ref=1 / me_range=16 / chroma_me=1 / trellis=1 / 8x8dct=1 / cqm=0 / deadzone=21,11 / fast_pskip=1 / chroma_qp_offset=-2 / threads=3 / sliced_threads=0 / nr=0 / decimate=1 / interlaced=0 / constrained_intra=0 / bframes=5 / b_pyramid=2 / b_adapt=2 / b_bias=0 / direct=1 / weightb=1 / open_gop=0 / weightp=2 / keyint=240 / keyint_min=23 / scenecut=40 / intra_refresh=0 / rc_lookahead=50 / rc=abr / mbtree=1 / bitrate=2120 / ratetol=1.0 / qcomp=0.60 / qpmin=3 / qpmax=51 / qpstep=4 / ip_ratio=1.40 / aq=1:1.00
Encoded date                     : UTC 2012-01-19 22:08:07
Tagged date                      : UTC 2012-01-19 14:30:25
Color primaries                  : BT.709-5, BT.1361, IEC 61966-2-4, SMPTE RP177
Transfer characteristics         : BT.709-5, BT.1361
Matrix coefficients              : BT.709-5, BT.1361, IEC 61966-2-4 709, SMPTE RP177

Audio
ID                               : 2
Format                           : AAC
Format/Info                      : Advanced Audio Codec
Format version                   : Version 4
Format profile                   : LC
Format settings, SBR             : No
Codec ID                         : 40
Duration                         : 1h 40mn
Bit rate mode                    : Variable
Bit rate                         : 448 Kbps
Maximum bit rate                 : 955 Kbps
Channel(s)                       : 6 channels
Channel positions                : Front: L C R, Side: L R, LFE
Sampling rate                    : 48.0 KHz
Stream size                      : 322 MiB (18%)
Language                         : English
Encoded date                     : UTC 2012-01-19 14:29:26
Tagged date                      : UTC 2012-01-19 14:30:25

Enjoy...


[img]http://img833.imageshack.us/img833/3351/iamlegend720pmp4aacbrri.png[/img]

[img]http://img825.imageshack.us/img825/3351/iamlegend720pmp4aacbrri.png[/img]

[img]http://img85.imageshack.us/img85/3351/iamlegend720pmp4aacbrri.png[/img]

[img]http://img814.imageshack.us/img814/3351/iamlegend720pmp4aacbrri.png[/img]

[img]http://img843.imageshack.us/img843/3351/iamlegend720pmp4aacbrri.png[/img]